<svg width="30" height="30" viewBox="0 0 30 30" fill="none" xmlns="http://www.w3.org/2000/svg">
<path d="M6.03333 12.9833C8.43333 17.7 12.3 21.55 17.0167 23.9667L20.6833 20.3C21.1333 19.85 21.8 19.7 22.3833 19.9C24.25 20.5167 26.2667 20.85 28.3333 20.85C29.25 20.85 30 21.6 30 22.5167V28.3333C30 29.25 29.25 30 28.3333 30C12.6833 30 0 17.3167 0 1.66667C0 0.75 0.75 0 1.66667 0H7.5C8.41667 0 9.16667 0.75 9.16667 1.66667C9.16667 3.75 9.5 5.75 10.1167 7.61667C10.3 8.2 10.1667 8.85 9.7 9.31667L6.03333 12.9833Z" fill="black"/>
</svg>
